<?xml version="1.0" standalone="no"?>
<!DOCTYPE svg PUBLIC "-//W3C//DTD SVG 20010904//EN"
 "http://www.w3.org/TR/2001/REC-SVG-20010904/DTD/svg10.dtd">
<svg version="1.0" xmlns="http://www.w3.org/2000/svg"
 width="2048.000000pt" height="2048.000000pt" viewBox="0 0 2048.000000 2048.000000"
 preserveAspectRatio="xMidYMid meet">

<g transform="translate(0.000000,2048.000000) scale(0.100000,-0.100000)"
fill="#000000" stroke="none">
<path d="M17125 12970 c-93 -43 -267 -121 -385 -174 -394 -178 -610 -280 -602
-287 4 -3 115 -56 247 -117 132 -60 337 -155 455 -209 118 -55 272 -126 341
-157 l126 -58 119 59 c65 33 199 97 297 143 157 74 201 100 167 100 -15 0
-483 205 -545 238 -36 20 -50 33 -49 47 3 38 29 125 37 125 5 0 145 -60 310
-134 166 -74 333 -147 372 -163 74 -30 93 -55 59 -80 -10 -7 -12 -13 -6 -13 9
0 12 -54 12 -209 l0 -209 -25 -6 c-22 -6 -25 -12 -25 -48 0 -23 7 -49 15 -58
12 -14 13 -22 0 -64 -8 -27 -18 -91 -21 -142 l-7 -94 88 0 88 0 -6 103 c-3 60
-13 121 -22 145 -16 38 -16 43 -1 57 23 24 21 82 -4 97 -19 12 -20 23 -20 253
l1 240 102 44 c56 25 137 61 180 81 l78 37 -88 38 c-76 32 -944 423 -1058 476
-22 10 -44 18 -50 18 -5 0 -86 -36 -180 -79z"/>
<path d="M17870 12133 c-52 -25 -200 -94 -327 -155 l-233 -111 -137 63 c-76
34 -221 101 -323 147 -102 47 -196 88 -209 90 l-23 6 4 -149 c4 -167 10 -187
77 -247 49 -44 129 -86 236 -121 335 -112 777 -53 975 130 l55 52 5 163 c3 90
3 167 0 170 -3 3 -48 -14 -100 -38z"/>
<path d="M14920 10295 c0 -363 4 -553 11 -580 29 -105 152 -156 299 -124 l50
11 0 93 0 93 -42 -5 c-34 -4 -49 0 -70 17 l-28 21 0 504 0 504 -110 3 -110 3
0 -540z"/>
<path d="M11740 10215 l0 -615 109 0 110 0 3 284 3 284 30 38 c47 58 88 76
165 72 49 -3 74 -9 98 -26 65 -47 67 -57 70 -369 l3 -283 108 0 108 0 7 243
c11 395 -10 506 -112 584 -126 96 -332 78 -436 -37 -20 -22 -37 -40 -38 -40
-2 0 -3 28 -3 62 0 35 -1 143 -3 241 l-2 177 -110 0 -110 0 0 -615z"/>
<path d="M7690 10715 l0 -105 105 0 105 0 0 105 0 105 -105 0 -105 0 0 -105z"/>
<path d="M10035 10800 c-113 -15 -218 -68 -270 -136 -117 -153 -88 -374 61
-473 64 -42 135 -67 289 -103 207 -47 262 -79 272 -156 20 -147 -228 -202
-442 -98 -38 19 -90 51 -114 73 l-43 38 -75 -75 -75 -75 54 -50 c117 -109 277
-166 463 -166 168 0 279 37 359 117 63 62 88 123 94 220 11 206 -97 310 -402
384 -222 54 -271 81 -282 151 -3 24 1 44 16 67 64 103 293 96 454 -12 l66 -44
50 68 c28 37 57 73 65 80 14 12 12 17 -12 42 -74 78 -208 132 -365 148 -55 5
-101 9 -102 9 0 -1 -28 -5 -61 -9z"/>
<path d="M2993 10790 c-237 -43 -425 -216 -478 -442 -19 -83 -19 -248 0 -323
58 -221 220 -379 442 -431 103 -24 258 -15 343 20 36 15 82 38 102 51 l38 25
0 -45 0 -45 100 0 100 0 0 325 0 325 -264 0 -265 0 0 -90 0 -89 157 -3 157 -3
0 -85 0 -85 -63 -42 c-87 -59 -153 -76 -263 -71 -76 4 -97 9 -163 41 -87 44
-134 92 -180 187 -29 61 -31 72 -31 180 0 107 2 119 29 175 39 79 110 149 194
188 63 30 74 32 177 32 103 0 114 -2 176 -31 37 -18 84 -48 106 -67 37 -34 40
-35 51 -16 7 10 37 48 68 85 54 64 55 66 38 85 -37 41 -141 100 -219 125 -90
29 -260 40 -352 24z"/>
<path d="M17430 10195 l0 -595 105 0 105 0 0 595 0 595 -105 0 -105 0 0 -595z
m187 571 c3 -3 0 -6 -7 -6 -10 0 -9 -4 3 -12 16 -12 17 -55 15 -573 l-3 -560
-90 0 -90 0 -3 570 c-1 314 0 576 3 584 4 10 24 12 85 8 44 -2 83 -7 87 -11z"/>
<path d="M16526 10733 c-30 -61 -296 -642 -296 -648 0 -3 -47 -111 -105 -241
-58 -131 -104 -238 -102 -240 1 -2 54 -4 116 -5 l114 -1 38 88 c21 48 40 96
42 106 5 17 23 18 313 16 l307 -3 42 -100 41 -100 122 -3 121 -3 -73 168
c-110 250 -263 593 -364 813 l-90 195 -101 3 -100 3 -25 -48z m225 -464 c55
-129 103 -240 106 -246 4 -10 -43 -13 -216 -13 l-221 0 26 58 c15 31 58 129
96 217 94 219 98 228 103 223 3 -2 50 -110 106 -239z"/>
<path d="M5257 10480 c-54 -14 -112 -46 -157 -87 l-40 -35 0 51 0 51 -105 0
-105 0 0 -430 0 -430 105 0 104 0 3 288 3 289 29 37 c80 105 257 98 312 -11
20 -39 22 -65 29 -323 l7 -280 104 0 104 0 0 283 c0 155 -5 311 -10 346 -26
159 -121 247 -278 256 -37 2 -84 0 -105 -5z"/>
<path d="M11113 10475 c-136 -30 -256 -125 -315 -251 -26 -56 -32 -82 -36
-164 -5 -102 9 -174 50 -254 26 -51 102 -132 153 -162 138 -80 321 -90 462
-25 59 28 157 106 151 121 -2 4 -31 33 -66 65 l-63 58 -42 -30 c-61 -43 -120
-63 -185 -63 -146 1 -242 101 -242 255 0 166 118 277 279 262 65 -5 112 -26
156 -67 l30 -29 72 69 71 69 -49 46 c-105 98 -264 135 -426 100z"/>
<path d="M13110 10480 c-100 -18 -162 -50 -236 -124 -114 -115 -160 -246 -138
-398 33 -229 211 -378 450 -380 260 -2 454 172 471 422 22 304 -240 533 -547
480z m206 -225 c49 -29 97 -95 114 -155 34 -122 -26 -262 -135 -311 -48 -22
-142 -25 -189 -5 -154 64 -205 275 -100 413 71 93 207 119 310 58z"/>
<path d="M14205 10483 c-16 -2 -55 -11 -85 -19 -263 -75 -393 -379 -272 -638
133 -284 561 -338 773 -98 238 271 80 702 -276 752 -71 10 -87 10 -140 3z
m172 -222 c91 -46 137 -136 132 -254 -4 -61 -10 -83 -34 -123 -99 -159 -341
-148 -427 20 -32 63 -36 159 -8 224 27 63 103 135 157 151 53 14 133 7 180
-18z"/>
<path d="M4099 10457 c-185 -63 -300 -248 -286 -461 12 -187 109 -323 276
-387 71 -27 217 -37 292 -19 78 18 169 63 208 104 l34 35 -52 54 -53 54 -56
-33 c-31 -19 -72 -39 -92 -44 -48 -13 -144 -13 -191 2 -50 14 -114 69 -139
119 -38 73 -57 69 301 69 l321 0 -4 108 c-4 79 -11 122 -27 164 -27 70 -84
148 -137 188 -92 70 -266 91 -395 47z m229 -162 c20 -9 47 -26 60 -38 30 -28
70 -105 74 -143 l3 -29 -227 -3 c-258 -3 -246 -7 -208 76 32 70 57 99 112 126
60 30 129 34 186 11z"/>
<path d="M6126 10461 c-182 -60 -296 -226 -296 -431 0 -272 180 -449 457 -450
124 0 248 46 315 117 l26 28 -49 55 c-43 47 -52 53 -67 42 -79 -55 -115 -67
-218 -67 -95 0 -103 2 -150 30 -47 29 -114 119 -114 152 0 10 66 13 326 13
l327 0 -6 103 c-11 199 -87 327 -237 396 -76 35 -226 40 -314 12z m233 -174
c51 -26 96 -85 116 -149 l14 -47 -62 -6 c-34 -4 -138 -5 -232 -3 l-170 3 4 25
c4 33 34 90 66 128 60 71 180 94 264 49z"/>
<path d="M7022 10463 c-79 -24 -147 -89 -168 -161 -30 -102 3 -218 77 -272 22
-15 92 -45 157 -65 141 -45 186 -67 208 -100 33 -50 -8 -110 -82 -121 -61 -9
-174 19 -253 62 l-65 36 -18 -24 c-9 -13 -31 -42 -48 -65 l-30 -42 46 -35 c52
-40 132 -73 214 -88 72 -14 203 -4 264 19 208 78 232 348 41 458 -17 9 -91 38
-165 63 -146 52 -179 76 -166 126 20 78 153 86 289 18 42 -22 77 -37 77 -32 0
4 18 34 40 68 l39 62 -35 26 c-92 71 -302 104 -422 67z"/>
<path d="M8310 10465 c-30 -9 -70 -26 -88 -38 -112 -76 -134 -259 -44 -359 45
-50 79 -67 222 -112 169 -52 204 -81 186 -151 -21 -83 -237 -73 -371 18 l-38
26 -28 -43 c-16 -23 -38 -51 -49 -61 -11 -10 -20 -22 -20 -26 0 -16 123 -88
187 -111 96 -32 262 -32 345 0 102 41 168 134 168 237 0 91 -57 182 -142 226
-36 18 -151 58 -228 79 -136 37 -131 158 8 168 62 4 164 -24 213 -59 15 -10
31 -19 36 -18 4 0 27 29 50 65 l41 64 -34 26 c-91 70 -291 103 -414 69z"/>
<path d="M7690 10033 l0 -433 105 0 105 0 0 435 0 435 -105 -3 -105 -2 0 -432z"/>
<path d="M8950 10075 l0 -95 270 0 270 0 0 95 0 95 -270 0 -270 0 0 -95z"/>
<path d="M15400 10075 l0 -95 265 0 265 0 0 95 0 95 -265 0 -265 0 0 -95z"/>
</g>
</svg>
